<svg width="26" height="30" viewBox="0 0 26 30" fill="none" xmlns="http://www.w3.org/2000/svg">
<path d="M11.8786 0C8.86645 0 6.14722 0.273518 4.08871 0.747603C3.05947 0.984639 2.20093 1.25862 1.49521 1.64288C1.1422 1.83502 0.817155 2.05486 0.535321 2.37203C0.253676 2.68921 0 3.15616 0 3.69187C0 4.22757 0.25377 4.70377 0.535321 5.02094C0.816966 5.33812 1.14235 5.54873 1.49521 5.74085C2.20093 6.12514 3.05947 6.40832 4.08871 6.64536C6.14722 7.11944 8.86645 7.39296 11.8786 7.39297C14.8908 7.39297 17.6191 7.11945 19.6777 6.64536C20.7069 6.40833 21.5655 6.12512 22.2712 5.74085C22.6242 5.54871 22.9401 5.33814 23.2219 5.02094C23.3253 4.90445 23.3315 4.68528 23.4156 4.53177C23.6306 4.30441 23.7525 4.00472 23.7572 3.69187C23.7448 3.40508 23.634 3.13132 23.4435 2.91658C23.3532 2.73956 23.3381 2.50294 23.2219 2.37203C22.9402 2.05484 22.6241 1.83501 22.2712 1.64288C21.5655 1.2586 20.7069 0.984639 19.6777 0.747603C17.6191 0.273523 14.8908 -4.72553e-06 11.8786 0ZM11.8786 2.49201C14.7352 2.49201 17.3272 2.77257 19.1146 3.18424C19.8099 3.34434 20.242 3.52188 20.6375 3.69187C20.242 3.86189 19.8102 4.04856 19.1146 4.20873C17.3272 4.62038 14.7352 4.89173 11.8786 4.89173C9.02206 4.89172 6.4392 4.62038 4.65179 4.20873C3.95916 4.04924 3.5243 3.8613 3.12886 3.69187C3.52439 3.52246 3.95944 3.34369 4.65179 3.18424C6.4392 2.77259 9.02206 2.49202 11.8786 2.49201Z" fill="#E02758"/>
<path d="M1.25528 9.7837C1.09026 9.78305 0.926737 9.81506 0.774148 9.87791C0.621559 9.94076 0.482896 10.0332 0.366204 10.1499C0.249512 10.2666 0.15707 10.4052 0.0942173 10.5578C0.031365 10.7104 -0.000641478 10.8739 9.74115e-06 11.0389C5.69971e-05 11.5746 0.253307 12.0416 0.535331 12.3588C0.816976 12.6759 1.14236 12.8958 1.49522 13.0879C2.20094 13.4722 3.05948 13.7462 4.08872 13.9832C6.14723 14.4573 8.8665 14.7308 11.8786 14.7308C14.8907 14.7308 17.6192 14.4573 19.6777 13.9832C20.7069 13.7462 21.5655 13.4722 22.2712 13.0879C22.6242 12.8958 22.94 12.6759 23.2219 12.3588C23.5035 12.0416 23.7571 11.5746 23.7572 11.0389C23.7578 10.8747 23.7261 10.7119 23.6638 10.5599C23.6015 10.4079 23.5099 10.2697 23.3942 10.1532C23.2785 10.0366 23.141 9.94397 22.9895 9.88058C22.8379 9.81718 22.6754 9.78427 22.5112 9.7837C22.3462 9.78305 22.1826 9.81509 22.03 9.87794C21.8775 9.9408 21.7388 10.0332 21.6221 10.1499C21.5054 10.2666 21.413 10.4052 21.3502 10.5578C21.2873 10.7104 21.2553 10.8739 21.2559 11.0389C21.2559 10.8411 21.359 10.6959 21.3575 10.6974C21.3563 10.6989 21.2564 10.7906 21.0712 10.8913C20.7016 11.0926 20.0083 11.3408 19.1145 11.5466C17.3271 11.9582 14.735 12.2296 11.8785 12.2296C9.02197 12.2296 6.43906 11.9582 4.65166 11.5466C3.7579 11.3408 3.05543 11.0926 2.6857 10.8913C2.50093 10.7906 2.41019 10.6989 2.40877 10.6974C2.40745 10.6959 2.50093 10.8411 2.50093 11.0389C2.50157 10.8747 2.46986 10.7119 2.40758 10.5599C2.34531 10.4079 2.25372 10.2697 2.13801 10.1532C2.0223 10.0366 1.88476 9.94397 1.73324 9.88058C1.58172 9.81718 1.41953 9.78427 1.25528 9.7837Z" fill="#E02758"/>
<path d="M22.5111 2.44581C22.3469 2.44517 22.1841 2.47688 22.0321 2.53915C21.8801 2.60143 21.7419 2.69305 21.6253 2.80876C21.5088 2.92447 21.4161 3.06201 21.3527 3.21353C21.2893 3.36505 21.2564 3.52757 21.2559 3.69182V20.6652C21.2564 20.8294 21.2893 20.9919 21.3527 21.1435C21.4161 21.295 21.5088 21.4325 21.6253 21.5482C21.7419 21.6639 21.8801 21.7556 22.0321 21.8178C22.1841 21.8801 22.3469 21.9118 22.5111 21.9112C22.8412 21.91 23.1574 21.7784 23.3909 21.545C23.6243 21.3116 23.756 20.9953 23.7571 20.6652V3.69182C23.756 3.36171 23.6243 3.04543 23.3909 2.812C23.1574 2.57858 22.8412 2.44695 22.5111 2.44581Z" fill="#E02758"/>
<path d="M1.25528 2.44581C1.09103 2.44516 0.928261 2.47688 0.776275 2.53915C0.62429 2.60143 0.486055 2.69305 0.369485 2.80876C0.252915 2.92447 0.160281 3.06201 0.0968852 3.21353C0.0334891 3.36505 0.000573979 3.52757 9.74115e-06 3.69182V25.7138C-0.000641478 25.8788 0.031365 26.0424 0.0942173 26.1949C0.15707 26.3475 0.249512 26.4862 0.366204 26.6029C0.482896 26.7195 0.621559 26.812 0.774148 26.8748C0.926737 26.9377 1.09026 26.9697 1.25528 26.969C1.41953 26.9685 1.58205 26.9356 1.73357 26.8722C1.88508 26.8088 2.02263 26.7161 2.13834 26.5996C2.25405 26.483 2.34563 26.3448 2.40791 26.1928C2.47018 26.0408 2.5019 25.8781 2.50125 25.7138V3.69182C2.50012 3.36171 2.36848 3.04543 2.13506 2.81201C1.90163 2.57858 1.58539 2.44695 1.25528 2.44581Z" fill="#E02758"/>
<path d="M1.25527 17.1304C1.09102 17.1297 0.928251 17.1615 0.776266 17.2237C0.62428 17.286 0.486045 17.3776 0.369475 17.4933C0.252905 17.609 0.160272 17.7466 0.0968755 17.8981C0.033479 18.0496 0.000564857 18.2121 0 18.3764C4.72559e-05 18.9121 0.253298 19.3791 0.535321 19.6962C0.816966 20.0134 1.14235 20.2332 1.49521 20.4254C2.20093 20.8096 3.05947 21.0928 4.08871 21.3299C6.14722 21.804 8.86649 22.0775 11.8786 22.0775C14.8907 22.0775 17.6191 21.804 19.6777 21.3299C20.7069 21.0928 21.5655 20.8096 22.2712 20.4254C22.6242 20.2332 22.94 20.0134 23.2219 19.6962C23.5035 19.3791 23.7571 18.9121 23.7572 18.3764C23.756 18.0463 23.6244 17.73 23.3909 17.4966C23.1575 17.2632 22.8413 17.1315 22.5112 17.1304C22.3469 17.1297 22.1841 17.1614 22.0322 17.2237C21.8802 17.286 21.742 17.3776 21.6254 17.4933C21.5088 17.609 21.4162 17.7466 21.3528 17.8981C21.2894 18.0496 21.2565 18.2121 21.2559 18.3764C21.2559 18.1786 21.3589 18.0334 21.3575 18.0349C21.3563 18.0363 21.2564 18.1281 21.0712 18.2287C20.7016 18.43 20.0083 18.6874 19.1145 18.8932C17.327 19.3049 14.735 19.5762 11.8784 19.5762C9.02196 19.5762 6.43905 19.3049 4.65165 18.8932C3.75789 18.6874 3.05542 18.43 2.68569 18.2287C2.50092 18.1281 2.41018 18.0363 2.40876 18.0349C2.40744 18.0334 2.50092 18.1786 2.50092 18.3764C2.49978 18.0463 2.36815 17.73 2.13472 17.4966C1.9013 17.2632 1.58538 17.1315 1.25527 17.1304Z" fill="#E02758"/>
<path d="M1.25527 24.4678C1.09102 24.4671 0.928252 24.4989 0.776266 24.5611C0.62428 24.6234 0.486046 24.715 0.369475 24.8307C0.252905 24.9464 0.160272 25.084 0.0968755 25.2355C0.0334793 25.387 0.000564238 25.5495 0 25.7138C0 26.2495 0.25377 26.7257 0.535321 27.0429C0.816966 27.36 1.14235 27.5799 1.49521 27.772C2.20093 28.1563 3.05947 28.4302 4.08871 28.6673C6.14722 29.1414 8.86645 29.4149 11.8786 29.4149C13.5355 29.4149 15.1692 29.3337 16.6688 29.1657C16.8326 29.148 16.9912 29.098 17.1357 29.0187C17.2801 28.9395 17.4075 28.8324 17.5104 28.7037C17.6133 28.5751 17.6898 28.4274 17.7354 28.269C17.7811 28.1107 17.795 27.945 17.7763 27.7813C17.7586 27.6175 17.7086 27.4588 17.6294 27.3143C17.5501 27.1699 17.4431 27.0426 17.3144 26.9396C17.1857 26.8367 17.038 26.7602 16.8797 26.7146C16.7214 26.669 16.5556 26.6551 16.3919 26.6737C14.998 26.8299 13.4481 26.9136 11.8786 26.9136C9.02206 26.9136 6.4392 26.6423 4.65179 26.2307C3.75804 26.0249 3.05552 25.7767 2.68583 25.5753C2.50106 25.4747 2.41033 25.383 2.40891 25.3815C2.33794 25.1268 2.18804 24.9011 1.98074 24.7369C1.77344 24.5727 1.51949 24.4785 1.25527 24.4678Z" fill="#E02758"/>
<path d="M20.4984 23.4991C20.1702 23.4993 19.8553 23.6286 19.6216 23.859C19.5049 23.9752 19.4123 24.1132 19.3491 24.2653C19.286 24.4173 19.2534 24.5804 19.2534 24.7451C19.2534 24.9097 19.286 25.0727 19.3491 25.2248C19.4123 25.3768 19.5049 25.5149 19.6216 25.6311L23.6273 29.6368C23.8615 29.8696 24.1784 30.0003 24.5087 30.0003C24.839 30.0003 25.1559 29.8696 25.3901 29.6368C25.5068 29.5206 25.5994 29.3825 25.6626 29.2305C25.7258 29.0784 25.7583 28.9154 25.7583 28.7507C25.7583 28.5861 25.7258 28.423 25.6626 28.271C25.5994 28.1189 25.5068 27.9809 25.3901 27.8647L21.3845 23.859C21.1485 23.6263 20.8298 23.4969 20.4984 23.4991Z" fill="#E02758"/>
<path d="M23.6273 23.8577L19.6216 27.8634C19.5049 27.9796 19.4123 28.1176 19.3491 28.2697C19.286 28.4217 19.2534 28.5848 19.2534 28.7494C19.2534 28.9141 19.286 29.0771 19.3491 29.2292C19.4123 29.3812 19.5049 29.5193 19.6216 29.6355C19.8559 29.8683 20.1727 29.999 20.503 29.999C20.8333 29.999 21.1502 29.8683 21.3845 29.6355L25.3901 25.6298C25.5068 25.5136 25.5994 25.3756 25.6626 25.2235C25.7258 25.0715 25.7583 24.9084 25.7583 24.7438C25.7583 24.5791 25.7258 24.4161 25.6626 24.264C25.5994 24.112 25.5068 23.9739 25.3901 23.8577C25.1559 23.6248 24.839 23.4941 24.5087 23.4941C24.1784 23.4941 23.8615 23.6248 23.6273 23.8577Z" fill="#E02758"/>
</svg>
